<?xml version="1.0" standalone="no"?>
<!DOCTYPE svg PUBLIC "-//W3C//DTD SVG 20010904//EN"
 "http://www.w3.org/TR/2001/REC-SVG-20010904/DTD/svg10.dtd">
<svg version="1.0" xmlns="http://www.w3.org/2000/svg"
 width="500.000000pt" height="500.000000pt" viewBox="0 0 500.000000 500.000000"
 preserveAspectRatio="xMidYMid meet">

<g transform="translate(0.000000,500.000000) scale(0.100000,-0.100000)"
fill="#000000" stroke="none">
<path d="M2465 3840 c-76 -16 -495 -177 -529 -203 -30 -24 -121 -163 -128
-198 -2 -8 -5 -16 -8 -19 -3 -3 -18 -25 -34 -50 -22 -34 -24 -40 -8 -27 15 14
21 15 25 5 2 -7 3 -5 2 5 -4 20 11 23 18 5 4 -10 8 -9 17 2 8 12 9 9 5 -15 -3
-16 -2 -24 1 -17 3 6 10 12 15 12 6 0 7 -6 4 -12 -12 -26 18 20 76 119 33 56
70 108 82 116 12 7 127 50 256 95 176 62 246 82 285 82 28 0 56 -4 62 -8 12
-8 34 -100 34 -142 0 -16 6 -31 13 -33 9 -4 8 -8 -3 -16 -13 -10 -13 -11 0
-11 13 0 13 -1 0 -10 -8 -5 -10 -10 -3 -10 6 0 9 -9 6 -20 -3 -11 -1 -20 5
-20 12 0 7 -39 -5 -50 -5 -4 -44 -20 -89 -35 l-81 -27 -120 41 c-92 32 -134
41 -184 41 -99 0 -230 -41 -198 -61 12 -7 12 -9 0 -9 -11 0 -11 -4 2 -18 10
-10 14 -22 10 -25 -3 -4 -1 -7 6 -7 14 0 31 -16 49 -48 6 -12 18 -32 25 -44 6
-12 22 -31 34 -43 21 -21 24 -49 8 -88 -4 -10 -36 -32 -71 -48 -34 -16 -86
-51 -114 -76 -90 -81 -137 -172 -87 -169 12 1 37 -6 55 -16 17 -10 32 -15 32
-11 0 3 8 -1 18 -10 22 -20 120 -55 145 -51 9 1 17 -3 17 -10 0 -7 14 -39 31
-71 25 -47 29 -62 21 -85 -9 -24 -8 -27 12 -26 22 2 32 -6 334 -294 95 -91
180 -166 188 -168 16 -4 486 448 481 462 -2 5 -23 20 -48 34 l-44 24 -193
-193 -192 -194 -194 195 c-184 186 -235 247 -256 308 l-10 27 20 -24 c16 -18
20 -20 20 -7 0 10 5 14 10 11 6 -3 10 3 10 14 0 12 5 21 12 21 6 0 9 3 5 6 -6
6 60 74 72 74 5 0 16 -19 27 -41 24 -55 88 -118 149 -149 70 -35 199 -36 265
-2 63 33 125 97 150 154 23 54 23 103 1 103 -10 0 -19 22 -29 64 -17 79 -49
132 -104 171 -101 73 -234 64 -325 -23 -18 -17 -33 -28 -33 -24 0 23 55 108
94 146 l46 45 24 -23 c24 -23 46 -22 46 2 0 13 188 16 208 3 16 -10 63 4 55
17 -3 5 -2 8 3 4 5 -3 17 1 28 8 17 13 15 15 -23 41 -23 14 -41 29 -41 33 1 3
59 71 130 150 72 80 129 146 127 147 -1 2 -121 46 -267 99 -227 82 -275 97
-339 100 -42 2 -94 0 -116 -5z m-604 -459 c-6 -10 -7 -22 -3 -26 4 -5 1 -5 -6
-1 -9 5 -9 12 -2 27 6 10 13 19 16 19 2 0 0 -8 -5 -19z m1088 -504 c8 -11 4
-29 -20 -76 -76 -152 -264 -196 -392 -90 -45 37 -84 106 -68 122 5 5 46 9 90
9 80 -1 81 -1 81 24 l0 24 149 0 c112 0 151 -3 160 -13z"/>
<path d="M2985 3261 c-3 -5 -1 -12 4 -15 5 -4 12 -2 16 4 3 5 11 10 16 10 6 0
7 -5 3 -12 -4 -7 -3 -8 5 -4 16 10 4 26 -19 26 -10 0 -21 -4 -25 -9z"/>
<path d="M1791 1686 c-77 -19 -109 -95 -77 -180 22 -57 66 -80 138 -74 53 6
90 33 103 76 6 20 3 22 -28 22 -24 0 -39 -6 -49 -21 -17 -27 -66 -29 -85 -3
-18 25 -17 99 3 119 23 22 67 15 79 -12 8 -18 18 -23 47 -23 21 0 38 2 38 4 0
1 -5 16 -10 32 -19 53 -86 78 -159 60z"/>
<path d="M2100 1560 l0 -130 40 0 40 0 0 130 0 130 -40 0 -40 0 0 -130z"/>
<path d="M2310 1660 c0 -29 2 -30 45 -30 l45 0 0 -100 0 -100 35 0 34 0 3 98
3 97 43 3 c39 3 42 5 42 33 l0 29 -125 0 -125 0 0 -30z"/>
<path d="M2690 1560 l0 -130 110 0 110 0 0 30 0 30 -70 0 c-68 0 -70 1 -70 25
0 24 3 25 60 25 57 0 60 1 60 25 0 24 -3 25 -60 25 -57 0 -60 1 -60 25 0 24 2
25 70 25 68 0 70 1 70 25 l0 25 -110 0 -110 0 0 -130z"/>
<path d="M3080 1616 c41 -62 49 -83 52 -127 l3 -54 38 -3 37 -3 0 54 c0 48 6
63 50 131 l50 76 -43 0 c-40 0 -44 -3 -68 -46 l-26 -47 -28 47 c-25 44 -29 46
-70 46 l-44 0 49 -74z"/>
</g>
</svg>
