<svg version="1.1" id="Layer_1" xmlns="http://www.w3.org/2000/svg" xmlns:xlink="http://www.w3.org/1999/xlink" x="0px" y="0px"
	 width="100%" viewBox="0 0 544 448" enable-background="new 0 0 544 448" xml:space="preserve">
<path fill="#000000" opacity="1.000000" stroke="none" 
	d="
M1.000002,411.000000 
	C1.000000,308.311310 1.000000,205.622650 1.306601,102.547089 
	C5.899873,101.957825 9.381105,98.231438 13.901265,99.222275 
	C20.075026,100.575577 23.319235,97.163780 26.382076,92.479568 
	C31.511883,84.634193 38.611900,78.335304 46.144905,73.174210 
	C52.616497,68.740334 57.874012,63.734058 62.545929,57.584003 
	C66.522247,52.349625 69.257904,46.395599 73.540428,41.272137 
	C78.346962,35.521778 81.335625,28.016018 79.128265,20.350338 
	C77.647118,15.206635 77.546432,10.679402 79.374626,5.864927 
	C79.964363,4.311895 80.457527,2.706461 80.000000,1.000000 
	C203.022018,1.000000 326.044037,1.000000 449.389221,1.231202 
	C448.544250,5.812394 451.960266,9.245057 452.077179,13.408450 
	C452.165588,16.556877 454.169647,18.865294 456.852112,20.616821 
	C464.553314,25.645344 471.384918,31.714457 477.832855,38.256939 
	C480.280518,40.740486 481.917480,43.509960 482.240356,46.967728 
	C482.712677,52.025795 484.270203,56.720798 486.661530,61.177387 
	C488.187897,64.022034 488.907166,67.106926 488.854492,70.317184 
	C488.749603,76.710632 490.225494,82.879364 491.410187,89.085777 
	C492.353088,94.025627 494.733582,98.458878 498.899445,101.088364 
	C505.483917,105.244377 510.035126,110.969894 513.933655,117.457375 
	C515.970093,120.846275 518.684082,124.079819 522.723999,124.222595 
	C530.844788,124.509613 537.613831,128.649231 545.000000,131.000000 
	C545.000000,200.022018 545.000000,269.044037 544.732178,338.531158 
	C541.949341,339.429352 541.740356,341.717468 541.051147,343.472534 
	C536.782837,354.342163 533.588745,365.489258 532.160522,377.133087 
	C531.413330,383.224579 530.707275,389.402283 528.055542,395.053802 
	C525.698242,400.077942 524.084961,405.306427 523.465637,410.786438 
	C522.719971,417.383179 519.829224,422.749939 515.138306,427.352905 
	C510.041290,432.354431 504.712677,437.160645 500.446594,442.936005 
	C499.164124,444.672211 496.851807,446.362030 499.000000,449.000000 
	C352.977997,449.000000 206.955978,449.000000 60.569378,448.797424 
	C60.928570,445.796936 58.402218,446.309448 57.145866,445.774506 
	C52.536568,443.811737 47.022778,442.021149 44.880180,437.761566 
	C40.555943,429.164703 32.481884,425.140839 25.772844,419.422852 
	C23.757900,417.705566 21.669033,415.747101 18.965752,415.515076 
	C12.489803,414.959229 6.847291,412.983765 2.942734,406.750977 
	C2.076551,408.645447 1.538277,409.822723 1.000002,411.000000 
M271.706909,347.372192 
	C268.549164,348.119843 267.968567,344.588470 265.549377,343.348450 
	C264.654114,347.129028 262.181976,347.818909 259.009857,347.441803 
	C256.864471,347.186707 254.669968,347.337494 252.527084,347.069672 
	C205.556122,341.198395 171.419952,300.260651 174.090500,252.966248 
	C174.243546,250.255920 174.019943,247.351257 175.702789,244.973709 
	C178.334946,245.025620 179.347916,247.004730 180.791107,248.261261 
	C182.937271,250.129868 185.046692,252.071350 187.708160,253.123123 
	C190.711990,254.310211 193.157974,253.884232 194.594559,250.437714 
	C197.519241,243.421021 198.843658,242.678818 206.198853,243.410080 
	C208.964355,243.685059 211.406723,243.399094 211.630417,239.959106 
	C211.922531,235.466415 214.581741,232.306335 217.240967,229.070206 
	C220.462082,225.150253 225.220001,221.451767 223.024094,215.671570 
	C220.866714,209.992874 215.194977,209.828720 209.953094,209.252151 
	C205.776184,208.792694 201.657043,207.032013 201.543106,202.219604 
	C201.426376,197.289688 205.348099,195.732834 209.731140,195.304382 
	C213.058777,194.979065 216.433182,194.620209 218.751404,191.727234 
	C221.334045,188.504272 221.082748,185.210037 218.615128,182.128998 
	C216.116776,179.009583 213.741837,181.404312 211.645538,182.755295 
	C192.720139,194.951904 179.625336,211.726669 173.223450,233.338821 
	C171.630569,238.716248 169.057266,240.325455 163.718597,240.240005 
	C145.890396,239.954666 128.055222,240.078506 110.222870,240.116623 
	C108.241844,240.120850 105.915108,239.325989 104.379715,241.456223 
	C105.134521,243.469376 106.914749,243.828552 108.319298,244.575317 
	C115.378754,248.328674 122.409386,252.148972 129.597778,255.641937 
	C133.521957,257.548737 135.457031,260.202362 136.457932,264.574585 
	C147.465057,312.656525 176.043686,345.418823 222.557083,362.223450 
	C230.080368,364.941467 237.889374,366.758270 245.867905,367.648865 
	C247.517227,367.832947 249.537033,367.872437 249.904160,365.711578 
	C250.309967,363.323059 248.037231,363.395020 246.569809,362.855713 
	C245.950882,362.628235 245.278793,362.531433 244.623291,362.419495 
	C230.103500,359.940002 216.671387,354.529877 204.706802,346.085083 
	C173.557144,324.099060 158.179413,293.880981 158.693298,255.677292 
	C158.788315,248.613586 161.203903,246.369171 169.207901,246.293610 
	C169.207901,252.218262 169.143021,258.154297 169.218460,264.088562 
	C169.693390,301.446594 194.800781,336.609924 229.898972,349.096375 
	C239.035019,352.346588 248.315247,354.823792 258.110840,355.174164 
	C264.391479,355.398773 264.774017,356.249481 264.615326,362.385437 
	C264.421539,369.879242 264.505371,377.380554 264.506531,384.878632 
	C264.506744,386.167511 264.391357,387.571503 266.064301,388.539093 
	C269.225769,384.876923 271.279877,380.474396 273.143280,376.162048 
	C275.743134,370.145264 279.803284,367.705963 286.269989,366.642670 
	C311.386200,362.512787 333.485962,351.764465 352.200073,334.390350 
	C372.304138,315.725769 385.336151,292.986298 391.359100,266.183929 
	C392.396484,261.567505 391.212341,258.847504 386.693542,257.375214 
	C382.896423,256.138031 379.238220,254.476135 375.445923,253.221863 
	C370.712524,251.656281 369.254883,252.613556 369.404602,257.688416 
	C369.642670,265.756073 368.769226,273.711548 366.832977,281.460999 
	C357.056183,320.590485 333.029785,346.700165 294.746979,359.595306 
	C289.676636,361.303192 284.435333,362.238281 279.178986,363.131653 
	C275.516022,363.754272 273.888275,361.593994 273.190125,358.589386 
	C272.334717,354.908112 275.479218,355.236023 277.580109,354.725555 
	C280.168854,354.096588 282.805664,353.668549 285.407562,353.090088 
	C334.313354,342.217163 366.391266,294.382507 357.828033,245.109650 
	C356.763153,238.982391 356.957367,238.708298 363.449127,238.695633 
	C381.448364,238.660522 399.447784,238.700546 417.446777,238.623550 
	C419.236328,238.615891 421.548004,239.557205 422.951569,236.218369 
	C416.590912,232.766434 410.419525,228.820023 403.778473,225.966827 
	C395.788971,222.534271 390.346161,217.822311 390.283417,208.463028 
	C390.270569,206.542557 389.285339,204.613647 388.669067,202.714340 
	C373.738892,156.700043 342.944672,127.135078 296.490051,113.779671 
	C292.551361,112.647324 290.214783,113.837311 288.761688,117.728516 
	C285.501099,126.459915 282.011322,135.106110 278.584869,143.775131 
	C273.907837,155.608170 275.367645,153.623627 284.866669,155.789246 
	C323.655762,164.632507 349.942596,187.703033 363.686829,225.131058 
	C365.279053,229.466949 364.353333,231.372757 360.158020,232.928406 
	C355.799316,234.544586 354.646179,232.325943 353.434265,228.930542 
	C349.000732,216.509201 342.055542,205.615845 332.831726,196.194534 
	C331.242065,194.570847 329.812561,192.597244 327.069275,192.325165 
	C325.722778,193.458405 325.463013,195.040482 325.205902,196.708694 
	C324.487610,201.369003 326.014404,205.164230 329.195190,208.535599 
	C330.423981,209.837997 331.676117,211.598785 329.881042,213.364838 
	C328.333801,214.887100 326.474792,214.443314 324.813782,213.429642 
	C323.395447,212.564056 322.086060,211.520676 320.722778,210.564041 
	C313.220703,205.299652 308.885132,205.707657 303.026215,212.582260 
	C300.240967,215.850372 296.992920,217.699387 292.670898,217.658203 
	C288.173584,217.615341 283.675262,217.620285 279.177826,217.657822 
	C268.601471,217.746078 262.938568,222.660675 260.741028,233.609818 
	C258.902679,242.769348 262.672882,249.349411 271.934479,253.283386 
	C275.458130,254.780121 279.032196,256.211090 282.394165,258.022919 
	C287.210938,260.618805 289.666107,266.246368 288.569153,271.606720 
	C288.136078,273.723022 287.643036,275.870758 286.817780,277.854614 
	C284.640625,283.088287 284.886444,288.137207 286.938843,293.383820 
	C288.749969,298.013794 290.693115,302.642273 291.349182,307.659698 
	C291.685547,310.231995 291.360260,313.372192 294.484039,314.454865 
	C297.514648,315.505249 299.970734,313.647400 302.175476,311.840302 
	C309.197968,306.084412 312.742767,298.377106 314.703583,289.688080 
	C316.335358,282.457245 318.540771,275.663361 326.240570,272.089722 
	C335.083588,267.985504 334.950897,267.708984 331.771881,258.383820 
	C331.682953,258.123016 331.882843,257.763733 332.124786,256.601349 
	C337.338013,258.369263 342.318726,257.509003 347.283844,255.037872 
	C352.226868,252.577728 353.417572,253.545364 353.422668,259.173920 
	C353.441650,280.168335 346.408630,298.765167 333.264404,314.873718 
	C317.608826,334.060059 297.503357,345.447021 271.706909,347.372192 
M240.417679,107.833977 
	C239.147034,110.790405 237.024338,112.547997 233.789505,113.266060 
	C213.392990,117.793579 195.303299,127.018913 179.453171,140.564392 
	C156.787277,159.934616 142.317261,184.183640 136.488190,213.506897 
	C135.769516,217.122177 136.612839,219.580475 140.417709,220.887650 
	C145.765518,222.724915 151.067383,224.735672 156.261414,226.968750 
	C160.722931,228.886917 163.119019,228.016144 164.895676,223.159485 
	C170.700287,207.292038 179.768585,193.478683 192.286026,182.016510 
	C208.720779,166.967255 227.915863,157.788071 250.008698,154.628006 
	C253.957428,154.063187 256.318054,155.184647 257.495453,159.155945 
	C258.105743,161.214355 258.766907,163.600037 261.238739,164.630112 
	C263.703033,158.989655 263.355316,75.328049 260.927795,72.014168 
	C260.507385,72.198387 259.871216,72.265511 259.658142,72.601196 
	C252.605850,83.711670 247.138504,95.688019 240.417679,107.833977 
M226.177612,325.305054 
	C230.679596,312.569244 238.994308,303.358276 251.435593,297.947723 
	C253.341614,297.118805 254.915726,295.710541 255.636932,293.847412 
	C257.944733,287.885529 261.798309,283.329956 267.167297,279.918427 
	C268.244751,279.233826 269.088806,278.071655 269.828705,276.985443 
	C272.903107,272.472168 271.868073,269.464691 266.505768,268.411957 
	C259.592438,267.054688 253.688965,263.991211 248.527649,259.288666 
	C244.358887,255.490417 239.416397,253.303848 233.874298,252.300049 
	C226.039490,250.880997 221.287170,254.163300 220.360107,262.089752 
	C219.760223,267.218781 219.927155,272.373444 220.795776,277.496643 
	C222.322891,286.503632 223.982147,295.458008 222.418640,304.716980 
	C221.566101,309.765717 221.408371,314.982330 221.484467,320.115112 
	C221.520493,322.544891 221.249588,326.182861 226.177612,325.305054 
z"/>
</svg>